<svg xmlns="http://www.w3.org/2000/svg" viewBox="0 0 110 80">
    <rect x="1" y="1" width="108" height="78" rx="16" fill="white" stroke="rgba(0,0,0,.12)"/>
    <path d="M34 18 C44 10,54 12,60 24 C70 28,74 36,70 44 C74 54,66 64,58 68 C48 74,50 86,44 94 C34 98,26 92,28 82 C20 76,18 66,26 58 C18 52,18 42,24 36 C20 30,24 22,34 18 Z" fill="#cfe9d5" stroke="rgba(60,40,20,.18)" stroke-width="1.5"/>
    <path d="M74 18c7 0 13 5 13 12 0 9-13 23-13 23S61 39 61 30c0-7 6-12 13-12z" fill="#d04f37"/>
    <circle cx="74" cy="30" r="4.5" fill="white"/>
    </svg>