<svg xmlns="http://www.w3.org/2000/svg" viewBox="0 0 180 180" width="180" height="180"><defs><linearGradient id="g" x1="0" y1="0" x2="1" y2="1"><stop offset="0%" stop-color="#dbe9da"/><stop offset="100%" stop-color="#fff9ef"/></linearGradient></defs><rect width="180" height="180" rx="24" fill="url(#g)"/><g opacity=".18" stroke="#8e775f" stroke-width="2" fill="none"><path d="M18 48 C40 38 62 40 84 50" /><path d="M30 134 C56 120 92 120 150 138" /><path d="M22 92 C60 108 88 104 156 82" /></g><path d="M110 26 C130 30 135 52 126 64 C146 76 145 94 133 103 C121 112 110 124 97 132 C92 142 98 155 92 168 C84 183 64 183 61 168 C58 152 44 148 40 136 C36 122 43 108 57 99 C47 89 50 74 62 68 C73 62 74 49 70 38 C67 29 83 20 95 21 Z" fill="#2e8b57" opacity=".9"/><circle cx="90" cy="122" r="10" fill="#b23324"/><circle cx="90" cy="122" r="4" fill="#fff6ef"/><rect x="18" y="132" width="144" height="28" rx="14" fill="#ffffff" fill-opacity=".78"/><text x="90" y="151" text-anchor="middle" font-family="Arial,sans-serif" font-size="18" font-weight="700" fill="#4d3728">Italy</text></svg>